# xmcd
#
# Track frame offsets: 
#        150
#        11239
#        27862
#        51882
#        65428
#        88937
#        98399
#        107952
#        124963
#        164088
#        182427
#        210964
#        224394
#        237542
#        251623
#        262974
#        273852
#        282900
#        294901
#        306630
#        315217
#        330427
#        341047
#        350493
#
# Disc length: 4787 seconds
#
# Revision: 0
# Processed by: cddbd v1.5.2PL0 Copyright (c) Steve Scherf et al.
# Submitted via: ExactAudioCopyFreeDBPlugin 1.0
#
DISCID=6712b118
DTITLE=Judy Henske - The Elektra Albums
DYEAR=2017
DGENRE=Blues
TTITLE0=Low Down Alligator
TTITLE1=Empty Bed Blues
TTITLE2=Ballad Of Little Romy
TTITLE3=Wade In The Water
TTITLE4=Hooka Tooka
TTITLE5=I Know You Rider
TTITLE6=Lily Langtree
TTITLE7=Lilac Wine
TTITLE8=Love Henry
TTITLE9=Every Night When The Sun Goes In
TTITLE10=Salvation Army Song
TTITLE11=High Flying Bird
TTITLE12=Buckeye Jim
TTITLE13=Till The Real Thing Comes Along
TTITLE14=Oh, You Engineer
TTITLE15=Baltimore Oriole
TTITLE16=Columbus Stockade
TTITLE17=Blues Chase Up Rabbit
TTITLE18=Lonely Train
TTITLE19=Duncan And Brady
TTITLE20=God Bless The Child
TTITLE21=Good Old Wagon
TTITLE22=You Are Not My First Love
TTITLE23=Charlotte Town
EXTD=
EXTT0=
EXTT1=
EXTT2=
EXTT3=
EXTT4=
EXTT5=
EXTT6=
EXTT7=
EXTT8=
EXTT9=
EXTT10=
EXTT11=
EXTT12=
EXTT13=
EXTT14=
EXTT15=
EXTT16=
EXTT17=
EXTT18=
EXTT19=
EXTT20=
EXTT21=
EXTT22=
EXTT23=
PLAYORDER=
